<?xml version="1.0" encoding="UTF-8" standalone="no"?>
<svg
   id="Layer_1"
   data-name="Layer 1"
   viewBox="0 0 3528.29 1656.09"
   version="1.1"
   sodipodi:docname="Logo Windoe short.svg"
   inkscape:version="1.4 (86a8ad7, 2024-10-11)"
   xmlns:inkscape="http://www.inkscape.org/namespaces/inkscape"
   xmlns:sodipodi="http://sodipodi.sourceforge.net/DTD/sodipodi-0.dtd"
   xmlns="http://www.w3.org/2000/svg"
   xmlns:svg="http://www.w3.org/2000/svg"
   xmlns:rdf="http://www.w3.org/1999/02/22-rdf-syntax-ns#"
   xmlns:cc="http://creativecommons.org/ns#"
   xmlns:dc="http://purl.org/dc/elements/1.1/">
  <sodipodi:namedview
     id="namedview4"
     pagecolor="#ffffff"
     bordercolor="#000000"
     borderopacity="0.25"
     inkscape:showpageshadow="2"
     inkscape:pageopacity="0.0"
     inkscape:pagecheckerboard="0"
     inkscape:deskcolor="#d1d1d1"
     inkscape:zoom="0.35384551"
     inkscape:cx="1763.4815"
     inkscape:cy="828.04498"
     inkscape:window-width="1440"
     inkscape:window-height="830"
     inkscape:window-x="-6"
     inkscape:window-y="-6"
     inkscape:window-maximized="1"
     inkscape:current-layer="Layer_1" />
  <defs
     id="defs1">
    <style
       id="style1">.cls-1{fill:#df2746;}</style>
  </defs>
  <title
     id="title1">Logo Windoe</title>
  <polygon
     class="cls-1"
     points="2728.11 403.04 2670.67 355.92 2543.05 552.56 2541.55 419.36 2479.3 420.31 2453.54 690.47 2304.36 920.35 2107.97 874.59 2172.72 579.35 2089.41 564.21 1988.67 882.12 1840.24 949.87 1714.73 1083.11 1657.66 1005.41 1622.7 1055.92 1682.37 1152.09 1630.47 1248.22 1438.75 1037.84 1438.75 1034.43 1245.81 1246.15 1193.91 1150.02 1253.58 1053.85 1218.61 1003.35 1161.54 1081.04 1036.03 947.8 887.61 880.05 786.87 562.14 703.55 577.28 768.3 872.52 571.91 918.28 422.73 688.41 396.97 418.24 334.73 417.29 333.23 550.5 205.6 353.86 148.16 400.98 415.49 844.51 188.94 729.85 192.13 803.07 551.04 1025.57 814.5 982.32 953.54 1099.82 1038.8 1176.78 1033.6 1172.84 1193.84 1402.16 1233.17 1362.64 1234.15 1364.7 1437.52 1151.31 1437.52 1152.09 1642.12 1366.77 1642.25 1366.5 1682.43 1412 1842.67 1174.91 1837.47 1178.85 1922.74 1101.88 2061.77 984.39 2325.23 1027.64 2684.14 805.14 2687.34 731.92 2460.78 846.58 2728.11 403.04"
     id="polygon4" />
  <metadata
     id="metadata4">
    <rdf:RDF>
      <cc:Work
         rdf:about="">
        <dc:title>Logo Windoe</dc:title>
      </cc:Work>
    </rdf:RDF>
  </metadata>
</svg>
